# xmcd
#
# Track frame offsets:
#	150
#	13878
#	32060
#	60979
#	84963
#	108303
#	126816
#	141644
#	169620
#	184390
#	200232
#	220042
#	243407
#	262743
#	279396
#	297219
#
# Disc length: 4363 seconds
#
# Revision: 1
# Processed by: cddbd v1.5.2PL0 Copyright (c) Steve Scherf et al.
# Submitted via: audiograbber 1.83.01
#
DISCID=ea110910
DTITLE=Megadeth - Warchest - Box Set Sampler
DYEAR=2007
DGENRE=Metal
TTITLE0=Killing is my business... and business is good!
TTITLE1=Peace sells
TTITLE2=In my darkest hour
TTITLE3=Tornado of souls (demo)
TTITLE4=Hangar 18
TTITLE5=Symphony of destruction
TTITLE6=Skin O' My Teeth (Live at Alpine Valley, East Troy, WI 5(23/92)
TTITLE7=Ashes in your mouth (live at the Cow Palace, S.F., CA 12/4/92)
TTITLE8=Breakpoint (session take)
TTITLE9=Train of consequences
TTITLE10=A tout le monde
TTITLE11=Trust
TTITLE12=Insomnia
TTITLE13=Kill the king
TTITLE14=Kick the chair
TTITLE15=Holy wars (live at Wembley Stadium,London, UK 10/16/90)
EXTD=
EXTT0=
EXTT1=
EXTT2=
EXTT3=
EXTT4=
EXTT5=
EXTT6=
EXTT7=
EXTT8=
EXTT9=
EXTT10=
EXTT11=
EXTT12=
EXTT13=
EXTT14=
EXTT15=
PLAYORDER=
